# xmcd
#
# Track frame offsets: 
#        150
#        26760
#        46628
#        64145
#        88273
#        114555
#        139068
#        161785
#        178933
#        203025
#
# Disc length: 2986 seconds
#
# Revision: 0
# Processed by: cddbd v1.5.2PL0 Copyright (c) Steve Scherf et al.
# Submitted via: ExactAudioCopy v1.0b3
#
DISCID=8c0ba80a
DTITLE=Phuong Mai, Tuan Vu - Chuyen tinh Lan va Diep
DYEAR=1991
DGENRE=
TTITLE0=Phuong Mai - Lan va Diep 1
TTITLE1=Dem buon tinh le
TTITLE2=Tuan Vu - Duong len non
TTITLE3=Dau chan ky niem
TTITLE4=Phuong Mai - Lan va Diep 2
TTITLE5=Phuong Mai - Trang tan tren he pho
TTITLE6=Khuc hat an tinh
TTITLE7=Tuan Vu - Ngo ngang
TTITLE8=Phuong Mai - Lan va Diep 3
TTITLE9=Tinh nghia doi ta
EXTD=
EXTT0=
EXTT1=
EXTT2=
EXTT3=
EXTT4=
EXTT5=
EXTT6=
EXTT7=
EXTT8=
EXTT9=
PLAYORDER=
